PathFileType	4	(X/Y/Z)	/Users/niels/Desktop/University/Third Semester/Perception and Action/Exam/Gymnastics Motion Tracking/Code for Gym Tracking/Analyzed Data/Webcam_Backflip/id1_8_trajectory_Sports2D/id1_8_trajectory_Sports2D_px_person00.trc
DataRate	CameraRate	NumFrames	NumMarkers	Units	OrigDataRate	OrigDataStartFrame	OrigNumFrames
29.71698113207547	29.71698113207547	8	22	m	29.71698113207547	39	106
Frame#	Time	Hip			RHip			RKnee			RAnkle			RBigToe			RSmallToe			RHeel			LHip			LKnee			LAnkle			LBigToe			LSmallToe			LHeel			Neck			Head			Nose			RShoulder			RElbow			RWrist			LShoulder			LElbow			LWrist		
		X1	Y1	Z1	X2	Y2	Z2	X3	Y3	Z3	X4	Y4	Z4	X5	Y5	Z5	X6	Y6	Z6	X7	Y7	Z7	X8	Y8	Z8	X9	Y9	Z9	X10	Y10	Z10	X11	Y11	Z11	X12	Y12	Z12	X13	Y13	Z13	X14	Y14	Z14	X15	Y15	Z15	X16	Y16	Z16	X17	Y17	Z17	X18	Y18	Z18	X19	Y19	Z19	X20	Y20	Z20	X21	Y21	Z21	X22	Y22	Z22
39	1.3123809523809522	0.9501242197796381	-0.6253629212477212	0.0	0.9528068985549972	-0.6215756764052941	0.0	0.9928435505306619	-0.7497087623788664	0.0	0.9518958300842163	-0.8746610778120759	0.0	0.9967465199648551	-0.8985806206318939	0.0	0.9866304163409568	-0.9019835328937412	0.0	0.9371244973259334	-0.8915530589774143	0.0	0.9513459576286617	-0.6202257720671819	0.0	0.9856416477856651	-0.7469247572263357	0.0	0.9565703521947628	-0.8642009973112417	0.0	1.001909259082544	-0.8883499766928185	0.0	0.9963422537442195	-0.8830885963770613	0.0	0.9424617503407763	-0.8813796929883783	0.0	0.984258641600456	-0.4571186684088614	0.0	1.0192117123829758	-0.3761431095019104	0.0	1.0285954349429303	-0.4284649463061752	0.0	0.9792466490894115	-0.4793774544079112	0.0	1.0363501573482448	-0.5414481686447681	0.0	1.108334542673818	-0.572071769822483	0.0	0.9683450519897303	-0.4737413585283585	0.0	1.0281191906943676	-0.5360653416253175	0.0	1.1031469097491728	-0.5655678344252011	0.0
40	1.346031746031746	0.951972636964317	-0.6401314600657831	0.0	0.9556212403888165	-0.6372625066458522	0.0	0.9957428121917187	-0.7630853895019865	0.0	0.9521258423352772	-0.8866856317533346	0.0	0.9956911750655731	-0.9107811179345519	0.0	0.9855561093264802	-0.9139764422071566	0.0	0.937263572179905	-0.9027060201283423	0.0	0.9532543812180765	-0.6358823203489226	0.0	0.9880325119764112	-0.7601041089216065	0.0	0.9564333868312531	-0.876987261106753	0.0	1.0016855275260341	-0.9001873988158262	0.0	0.9953868953870213	-0.8950427749740923	0.0	0.942282858403132	-0.8933269352240041	0.0	0.9852180562642032	-0.4707524280511048	0.0	1.0198689401476473	-0.3907368205787001	0.0	1.0288196493694641	-0.44168690756161355	0.0	0.9783424438714687	-0.4962595848594564	0.0	1.0195870323887666	-0.5688933345065043	0.0	1.0822672719326094	-0.6164624602990139	0.0	0.969112092415857	-0.4903092544595401	0.0	1.0154444388123294	-0.5629636431795877	0.0	1.0809479586755426	-0.6073189895087923	0.0
41	1.3796825396825394	0.9547967907972301	-0.6550888724327969	0.0	0.9589345195686771	-0.6531973193794977	0.0	0.9974282061572998	-0.7761740232957325	0.0	0.952470322947816	-0.8983110562842243	0.0	0.9946921958867917	-0.9221819036536958	0.0	0.9842375974466289	-0.9252163831701472	0.0	0.9379557462632019	-0.9136154710717098	0.0	0.9562646950919053	-0.6516766244826839	0.0	0.9893766843611367	-0.7730381637539755	0.0	0.956513473275949	-0.8894260930849855	0.0	1.0016677769419848	-0.911581072440517	0.0	0.9947172197968063	-0.9066460809431482	0.0	0.942728582492114	-0.9049862139345368	0.0	0.9862845518179967	-0.483358395701331	0.0	1.0205791298556244	-0.4044488317342523	0.0	1.0292871303581042	-0.4538868929427023	0.0	0.977188608274525	-0.5117654667867649	0.0	1.000858768982335	-0.5917535430570179	0.0	1.0499191236743324	-0.6541181056558576	0.0	0.9704588312306669	-0.5054784062703952	0.0	1.0015326523631944	-0.5856384375603636	0.0	1.0537431444699896	-0.6425374848587008	0.0
42	1.413333333333333	0.9582909925649401	-0.6685915095163456	0.0	0.9621408046457157	-0.6675812630025596	0.0	0.9975654493791825	-0.7875920809220536	0.0	0.9528075612663897	-0.9083239533048225	0.0	0.993570435962915	-0.9314059847067897	0.0	0.9827583071541243	-0.934323657673759	0.0	0.9391854458532212	-0.9231246512159468	0.0	0.9600450282446172	-0.6659682111710772	0.0	0.989418144208575	-0.7842781147819615	0.0	0.9567523123840338	-0.9000980632532941	0.0	1.0017866041738699	-0.921176264484535	0.0	0.9943735146426752	-0.9166033804300884	0.0	0.9436456567358696	-0.9151309854626846	0.0	0.9873636305502518	-0.4937694795120633	0.0	1.0212470966513811	-0.41578073930149245	0.0	1.0299832692995428	-0.4639479108917878	0.0	0.9759515316867409	-0.5241736586587253	0.0	0.9816187842348609	-0.607745403243033	0.0	1.0136493915203162	-0.6813937267669213	0.0	0.972194866662702	-0.5177320786521471	0.0	0.9871496427257186	-0.601997828073621	0.0	1.023088019978632	-0.6680949005659647	0.0
43	1.4469841269841268	0.9618689101121595	-0.678724083732619	0.0	0.9645963240400913	-0.6783302231047185	0.0	0.9961296527222858	-0.7957333094976085	0.0	0.9530248557276715	-0.9154514194696882	0.0	0.9919633595812706	-0.9373882912550037	0.0	0.9810362627818444	-0.9402618336216461	0.0	0.9406929611412852	-0.9300068724667532	0.0	0.9641415668640448	-0.6767547620179272	0.0	0.9883128650994852	-0.7922193281427715	0.0	0.9569909012250266	-0.9074702822238635	0.0	1.0017203673642647	-0.9275078601236113	0.0	0.9941729316922457	-0.9234886302277561	0.0	0.9446356789975755	-0.9224024669223571	0.0	0.9883460610524227	-0.5008839266562882	0.0	1.021931631120664	-0.42324052384842215	0.0	1.030816452207875	-0.4706974739528432	0.0	0.9747410445848347	-0.5319620274344848	0.0	0.9634474132419604	-0.615305940232366	0.0	0.9767491155147743	-0.695857724906625	0.0	0.974137221871478	-0.5257300696227539	0.0	0.9730302773115135	-0.610520246440703	0.0	0.9907205634253405	-0.6820793536199063	0.0
44	1.4806349206349205	0.9648848800066253	-0.6838449296874106	0.0	0.9659315789743539	-0.6836567189230778	0.0	0.99344884000808	-0.7991804457052689	0.0	0.9530850534400839	-0.9186294973544422	0.0	0.9897979407065011	-0.9394647235426544	0.0	0.9790991663552467	-0.9423669190958848	0.0	0.9420284589225124	-0.9332310161207227	0.0	0.9680118847526112	-0.6822018897871176	0.0	0.9863949201550232	-0.7955240790779108	0.0	0.9570523226090393	-0.9103494754572917	0.0	1.0011767355896832	-0.9295149843202654	0.0	0.9938585689528724	-0.9261622492006656	0.0	0.9452516723866723	-0.9256021231583639	0.0	0.9891232539527561	-0.5037954851663734	0.0	1.0227802882619803	-0.42572280951096675	0.0	1.031653865117792	-0.47319021434654723	0.0	0.973639807076297	-0.5341020140529248	0.0	0.947625187354717	-0.6139426852136458	0.0	0.9425943265244756	-0.6969022262429512	0.0	0.9761327469550686	-0.5285257717976596	0.0	0.9599050744937624	-0.6105801927412035	0.0	0.9586783609752897	-0.6840645781445801	0.0
45	1.514285714285714	0.9669249429017072	-0.6830911747652015	0.0	0.9662367614005615	-0.6826409726465087	0.0	0.9901188356170305	-0.7971479033067332	0.0	0.9530147747629	-0.9172284441069167	0.0	0.9876419510340212	-0.9372767799173963	0.0	0.9773869534776528	-0.9402398632108154	0.0	0.9427896908172234	-0.9321402287611577	0.0	0.9711756275765397	-0.6812936181107072	0.0	0.9840608013296538	-0.79348248202757	0.0	0.9568525743463044	-0.9082426274852364	0.0	1.0001017876383982	-0.9269496750530973	0.0	0.993309036553773	-0.9241983594935781	0.0	0.9452046798150775	-0.9240106777404458	0.0	0.9896114985144365	-0.501948469811436	0.0	1.0239693173783644	-0.4228160387716046	0.0	1.032402929782811	-0.4709759420175271	0.0	0.9727705444575593	-0.5301940317275083	0.0	0.9349024649507317	-0.6042891400369674	0.0	0.9138296209766111	-0.6859473951119598	0.0	0.9779888411166016	-0.5257416393609514	0.0	0.9484452084878404	-0.6027000667069228	0.0	0.9297167397544378	-0.675205064715757	0.0
46	1.5479365079365077	0.9679669266018347	-0.6765433905658732	0.0	0.9659749983812259	-0.6754405216671922	0.0	0.9868047195860448	-0.7896880309919477	0.0	0.9528778617609365	-0.9112071622107457	0.0	0.986422067905122	-0.9308888252333064	0.0	0.9765933000572694	-0.933902582206907	0.0	0.9428595200575045	-0.9265866424135825	0.0	0.9734420116709522	-0.6741402802604055	0.0	0.9817428634382506	-0.7861651303869533	0.0	0.9564491322984773	-0.9014153265901937	0.0	0.9987327753917268	-0.9202978828016404	0.0	0.9926426550323582	-0.9179190325068565	0.0	0.9444948673326038	-0.917595719076403	0.0	0.9897913971860591	-0.4952628225369557	0.0	1.0256867298343568	-0.414873892596305	0.0	1.0330623644468448	-0.4642024181519906	0.0	0.9722433358546851	-0.5205266096785844	0.0	0.9254819558141315	-0.5878303954457634	0.0	0.8917853884429506	-0.6659008291850468	0.0	0.9795035483878339	-0.517623830352179	0.0	0.9391692356962332	-0.5883917447493425	0.0	0.9068121810168843	-0.6578640582149498	0.0
